<svg xmlns="http://www.w3.org/2000/svg" version="1.1" x="0" y="0" width="31.1" height="31.1" viewBox="0 0 31.1 31.1" xml:space="preserve"><path d="M25.3 25.2h-3v-4.3h0.5 0.6 0.9l0.8 1 0.8-1h0.8 0.5 0.4l0 0.1c-1.5 0-2.8 1.3-2.8 2.8C24.9 24.4 25 24.8 25.3 25.2zM25.4 23.9c0 1.3 1.1 2.4 2.4 2.4 1.3 0 2.4-1.1 2.4-2.4s-1.1-2.4-2.4-2.4C26.4 21.5 25.4 22.6 25.4 23.9zM30.8 26.6H30.3h-0.6 -0.9l-0.9 1 -0.9-1h-0.9 -0.6 -0.5v4.5h5.9L30.8 26.6zM22.6 18.4c0 1.2 1 2.2 2.2 2.2 1.2 0 2.2-1 2.2-2.2 0-1.2-1-2.2-2.2-2.2C23.6 16.2 22.6 17.2 22.6 18.4zM22.2 18.3c0-1.4 1.2-2.6 2.6-2.7l0-0.1h-0.4H23.9h-0.8l-0.8 0.9 -0.8-0.9h-0.8 -0.6 -0.4v4h2.8C22.3 19.2 22.2 18.8 22.2 18.3zM20 13.2c0 1.1 0.9 2.1 2.1 2.1s2.1-0.9 2.1-2.1c0-1.1-0.9-2.1-2.1-2.1S20 12.1 20 13.2zM7.7 20.8H6.9l-0.8 1 -0.8-1H4.4 3.8 3.4L3.4 20.9c1.5 0 2.8 1.3 2.8 2.8 0 0.5-0.1 1-0.4 1.4h3v-4.3H8.4 7.7zM1 23.7c0 1.3 1.1 2.4 2.4 2.4 1.3 0 2.4-1.1 2.4-2.4s-1.1-2.4-2.4-2.4C2.1 21.3 1 22.4 1 23.7zM4.9 26.4H4l-0.9 1 -0.9-1H1.4 0.8 0.3l-0.1 4.5h5.9v-4.5H5.6 4.9zM4.1 18.2c0 1.2 1 2.2 2.2 2.2 1.2 0 2.2-1 2.2-2.2 0-1.2-1-2.2-2.2-2.2C5.1 16 4.1 17 4.1 18.2zM10.3 15.5L10.3 15.5l-0.8 0 -0.8 0.9 -0.8-0.9H7.2 6.7 6.3L6.3 15.5c1.4 0 2.6 1.2 2.6 2.7 0 0.5-0.1 0.9-0.3 1.3h2.8v-4h-0.4H10.3zM6.9 13.1c0 1.1 0.9 2.1 2.1 2.1s2.1-0.9 2.1-2.1 -0.9-2.1-2.1-2.1S6.9 11.9 6.9 13.1zM26.6 0H5.9v0.7h20.7V0zM26.6 9.4H5.9v0.7h20.7V9.4zM16.2 3.3c0.9 0 1.5 1.9 1.5 2.7 0 0.6-0.4 1.2-0.9 1.4v0.3L16.7 7.7l0 0.1 -1 0.1V7.8c0 0-0.1-0.1-0.1-0.2v-0.2c-0.6-0.2-1-0.8-1-1.4C14.7 5.2 15.3 3.3 16.2 3.3zM14.9 6c0 0.6 0.4 1.1 0.9 1.3l0.1 0V7.6c0 0 0 0 0.1 0l0.5 0c0.1 0 0.1 0 0.1 0V7.2l0.1 0c0.5-0.2 0.9-0.7 0.9-1.3 0-0.8-0.6-2.4-1.3-2.4C15.5 3.5 14.9 5.2 14.9 6zM16.7 7.9l-1 0.1v0.1c0 0 0 0.1 0 0.1l0 0 0.9-0.1 0 0 0 0c0 0 0 0 0-0.1L16.7 7.9zM15.8 8.4c0.1 0.1 0.2 0.2 0.4 0.2h0c0.3 0 0.4-0.1 0.5-0.3l0-0.1 -1 0.1L15.8 8.4zM19.7 5.7V5.4H18.3v0.3H19.7zM12.8 5.7h1.4V5.4H12.8V5.7zM16.4 1.5h-0.3V2.9h0.3V1.5zM17.2 3.2l0.3 0.2L18.3 2.3l-0.3-0.2L17.2 3.2zM17.9 4.1l0.1 0.3 1.3-0.4 -0.1-0.3L17.9 4.1zM13.1 4l1.3 0.4 0.1-0.3L13.2 3.7 13.1 4zM14.1 2.3l0.8 1.1 0.3-0.2 -0.8-1.1L14.1 2.3zM2.8 4.4c1 0 1.8-0.8 1.8-1.8 0-1-0.8-1.8-1.8-1.8 -1 0-1.8 0.8-1.8 1.8C1 3.6 1.8 4.4 2.8 4.4zM1.8 13.3l0 0.1h0.8v-0.7 -0.1V9.5h0.4v3.1 0.1 0.7h0.8l0-0.1 0.7 0.1h0.6v-0.7l-0.7-0.2H4.3V9.5 9.2 8.8h0.1l0.2-3.2L7.7 4.6 7.4 3.7 4.5 4.7H3.4L2.7 5.5 2.1 4.7H1.4 1 0.7L0.6 8.1h0.6l0 0.7H1.3V9.2v0.3 3.1H1.2l-0.7 0.2v0.7h0.6L1.8 13.3z"/></svg>