<?xml version="1.0" encoding="iso-8859-1"?><svg version="1.1" xmlns="http://www.w3.org/2000/svg" x="0" y="0" viewBox="0 0 121.9 121.9" xml:space="preserve"><path d="M50.1 98.9l-2.8-1c0.2-2 0.1-4.1-0.2-6.1l2.7-1.2c1.7-0.8 2.4-2.8 1.6-4.4l-1.6-3.4c-0.8-1.7-2.8-2.4-4.4-1.6l-2.7 1.2c-1.3-1.6-2.8-3-4.5-4.2l1-2.8c0.6-1.7-0.2-3.7-2-4.3l-3.5-1.3c-1.7-0.6-3.7 0.3-4.3 2l-1 2.8c-2-0.2-4.1-0.1-6.1 0.2L21 72c-0.8-1.7-2.8-2.4-4.4-1.6l-3.4 1.6c-1.7 0.8-2.4 2.8-1.6 4.4l1.2 2.7c-1.6 1.3-3 2.8-4.2 4.5l-2.8-1c-1.7-0.6-3.7 0.3-4.3 2l-1.3 3.5c-0.3 0.8-0.3 1.7 0.1 2.6 0.4 0.8 1 1.4 1.9 1.7l2.8 1c-0.2 2-0.1 4.1 0.2 6.1l-2.7 1.2c-1.7 0.8-2.4 2.8-1.6 4.4l1.6 3.4c0.8 1.7 2.8 2.4 4.4 1.6l2.7-1.2c1.3 1.6 2.8 3 4.5 4.2l-1 2.8c-0.3 0.8-0.3 1.7 0.1 2.6 0.4 0.8 1 1.4 1.9 1.7l3.5 1.3c0.8 0.3 1.7 0.3 2.6-0.1 0.8-0.4 1.4-1 1.7-1.9l1-2.8c2 0.2 4.1 0.1 6.1-0.2l1.2 2.7c0.8 1.7 2.8 2.4 4.4 1.6l3.4-1.6c1.7-0.8 2.4-2.8 1.6-4.4l-1.2-2.7c1.6-1.3 3-2.8 4.2-4.5l2.8 1c0.8 0.3 1.8 0.3 2.6-0.1 0.8-0.4 1.4-1 1.7-1.9l1.3-3.5C52.7 101.5 51.8 99.6 50.1 98.9zM31.7 107.7c-1.8 0.8-3.6 1.2-5.5 1.2 -5.2 0-9.9-3-12-7.7 -3.1-6.6-0.1-14.5 6.5-17.6 1.8-0.8 3.6-1.2 5.5-1.2 5.2 0 9.9 3 12 7.7C41.2 96.7 38.3 104.6 31.7 107.7zM83.2 108.5l-1.5-0.6c0.1-1.1 0.1-2.3-0.1-3.4l1.5-0.7c0.9-0.4 1.3-1.5 0.9-2.5l-0.9-1.9c-0.4-0.9-1.5-1.3-2.5-0.9l-1.5 0.7c-0.7-0.9-1.6-1.7-2.5-2.3l0.6-1.5c0.4-1-0.1-2-1.1-2.4l-2-0.7c-0.9-0.3-2 0.2-2.4 1.1l-0.6 1.5c-1.1-0.1-2.3-0.1-3.4 0.1l-0.7-1.5c-0.4-0.9-1.5-1.3-2.5-0.9l-1.9 0.9c-0.9 0.4-1.3 1.5-0.9 2.5l0.7 1.5c-0.9 0.7-1.7 1.6-2.3 2.5l-1.5-0.6c-0.9-0.3-2 0.2-2.4 1.1l-0.7 2c-0.2 0.5-0.1 1 0.1 1.4 0.2 0.5 0.6 0.8 1 1l1.5 0.6c-0.1 1.1-0.1 2.3 0.1 3.4l-1.5 0.7c-0.9 0.4-1.3 1.5-0.9 2.5l0.9 1.9c0.4 0.9 1.5 1.3 2.5 0.9l1.5-0.7c0.7 0.9 1.6 1.7 2.5 2.3l-0.6 1.5c-0.2 0.5-0.2 1 0.1 1.4 0.2 0.5 0.6 0.8 1 1l2 0.7c0.5 0.2 1 0.2 1.4-0.1s0.8-0.6 1-1l0.6-1.5c1.1 0.1 2.3 0.1 3.4-0.1l0.7 1.5c0.4 0.9 1.5 1.3 2.5 0.9l1.9-0.9c0.9-0.4 1.3-1.5 0.9-2.5l-0.7-1.5c0.9-0.7 1.7-1.6 2.3-2.5l1.5 0.6c0.5 0.2 1 0.2 1.4-0.1 0.4-0.2 0.8-0.6 1-1l0.7-2C84.6 109.9 84.1 108.9 83.2 108.5zM72.9 113.4c-1 0.4-2 0.7-3.1 0.7 -2.9 0-5.5-1.7-6.7-4.3 -1.7-3.7-0.1-8.1 3.6-9.8 1-0.4 2-0.7 3.1-0.7 2.9 0 5.5 1.7 6.7 4.3C78.2 107.3 76.6 111.7 72.9 113.4zM118.3 49.6l-4.7-1.7c0.4-3.4 0.2-6.9-0.4-10.3l4.5-2.1c2.8-1.3 4.1-4.6 2.8-7.5l-2.6-5.7c-1.3-2.8-4.6-4.1-7.5-2.8l-4.5 2.1c-2.2-2.7-4.8-5.1-7.6-7l1.7-4.7c1.1-2.9-0.4-6.2-3.3-7.2l-5.9-2.2c-2.8-1-6.2 0.5-7.2 3.3l-1.7 4.7c-3.4-0.4-6.9-0.2-10.3 0.4l-2.1-4.5c-1.3-2.8-4.6-4.1-7.5-2.8l-5.7 2.6c-2.8 1.3-4.1 4.7-2.8 7.5l2.1 4.5c-2.7 2.2-5.1 4.8-7 7.6l-4.7-1.7c-2.8-1-6.2 0.5-7.2 3.3l-2.2 5.9c-0.5 1.4-0.5 2.9 0.2 4.3 0.6 1.4 1.8 2.4 3.2 2.9l4.7 1.7c-0.4 3.4-0.2 6.9 0.4 10.3l-4.5 2.1c-2.8 1.3-4.1 4.6-2.8 7.5l2.6 5.7c1.3 2.8 4.6 4.1 7.5 2.8l4.5-2.1c2.2 2.7 4.8 5.1 7.6 7l-1.7 4.7c-0.5 1.4-0.5 2.9 0.2 4.3 0.6 1.4 1.8 2.4 3.2 2.9l5.9 2.2c1.4 0.5 2.9 0.5 4.3-0.2 1.4-0.6 2.4-1.8 2.9-3.2l1.7-4.7c3.4 0.4 6.9 0.3 10.3-0.4l2.1 4.5c1.3 2.8 4.6 4.1 7.5 2.8l5.7-2.6c2.8-1.3 4.1-4.6 2.8-7.5l-2.1-4.5c2.7-2.2 5.1-4.8 7-7.6l4.7 1.7c1.4 0.5 2.9 0.5 4.3-0.2 1.4-0.6 2.4-1.8 2.9-3.2l2.2-5.9C122.7 53.9 121.2 50.7 118.3 49.6zM87.3 64.3c-2.9 1.4-6.1 2-9.3 2 -8.7 0-16.6-5.1-20.2-12.9C52.7 42.2 57.6 29 68.7 23.9c2.9-1.4 6.1-2 9.3-2 8.7 0 16.6 5.1 20.2 12.9C103.4 45.9 98.5 59.2 87.3 64.3z"></path></svg>
