<svg xmlns="http://www.w3.org/2000/svg" version="1.1" x="0" y="0" width="31.9" height="31.9" viewBox="0 0 31.9 31.9" xml:space="preserve"><polygon points="6.7 26.1 6.7 25 2.5 25 1.1 19.1 0 19.4 1.7 26.1 2.5 26.1 1.5 28.6 2.1 28.9 3.3 26.1 5.2 26.1 6.3 28.9 7 28.6 6 26.1 "/><polygon points="30.2 26.1 31.9 19.3 30.8 19.1 29.3 25 25.2 25 25.2 26.1 25.9 26.1 24.9 28.5 25.5 28.8 26.7 26.1 28.5 26.1 29.8 28.8 30.4 28.5 29.3 26.1 "/><polygon points="9.9 23.2 9.9 29.1 10.3 29.1 10.3 23.2 10.1 23.2 "/><polygon points="25.4 24.7 26.9 24.7 27.4 24.7 27.8 24.7 28.6 24.7 27.2 17.5 24.8 17.5 23.1 20.1 23.2 20 23.1 20.1 21.3 19.4 20.9 20.3 11 20.3 10.6 19.4 8.8 20.1 7.1 17.5 4.7 17.5 3.3 24.7 4.1 24.7 4.5 24.7 5 24.7 6.5 24.7 6.6 24.7 7.4 24.7 7.9 24.7 7.9 23.2 7.2 23.2 7.2 23.2 6.3 23.2 7.3 19.9 7.7 20.5 7.4 20.5 7.4 21.6 8.1 21.6 8.1 23.2 8.1 24.7 8.1 29.1 8.4 29.1 9.7 29.1 9.7 23.2 9.7 21.6 22.4 21.6 22.4 23.2 22.4 29.1 23.5 29.1 23.9 29.1 23.9 24.7 23.9 23.2 23.9 21.6 24.6 21.6 24.6 20.5 24.2 20.5 24.6 19.9 25.6 23.2 24.7 23.2 24.7 23.2 24.1 23.2 24.1 24.7 24.5 24.7 25.3 24.7 "/><polygon points="21.6 23.2 21.6 29.1 22.2 29.1 22.2 23.2 21.8 23.2 "/><path d="M5.7 14.1c0 0.1-0.1 0.2-0.1 0.4 -0.1 0.7 0.1 1.4 0.6 1.9 0 0 0 0 0 0 0 0 0.1 0.1 0.1 0.1 0.1 0.1 0.2 0.1 0.2 0.2 0 0 0 0 0 0 0.2 0.1 0.5 0.2 0.8 0.3 0 0 0 0 0 0 0 0 0.1 0 0.1 0 0.1 0 0.1 0 0.2 0 0 0 0 0 0.1 0 0.1 0 0.2 0 0.3 0 0 0 0 0 0 0 0.9-0.2 1.7-0.9 1.8-1.8 0-0.2 0-0.5 0-0.7l0.5-0.5 -0.8-0.4 0.3-0.8 -1 0.1 -0.3-1 -1 0.7 -0.5-0.8 -0.5 0.9L5.8 12.2l0.3 0.9 -0.8 0.1 0.5 0.7C5.8 13.9 5.7 14 5.7 14.1zM25.8 13.1l0.3-0.9 -1 0.5 -0.5-0.9 -0.5 0.8 -1-0.7 -0.3 1 -1-0.1 0.3 0.8L21.3 13.9l0.5 0.5c0 0.2-0.1 0.5 0 0.7 0.2 1.2 1.3 2 2.5 1.9 0.2 0 0.4-0.1 0.6-0.2 0 0 0 0 0 0 0.1 0 0.2-0.1 0.3-0.2 0.1-0.1 0.2-0.1 0.2-0.2 0 0 0 0 0 0 0.4-0.4 0.6-0.9 0.7-1.4 0 0 0-0.1 0-0.1 0 0 0 0 0 0 0 0 0-0.1 0-0.1 0-0.1 0-0.2 0-0.3 0-0.1 0-0.2-0.1-0.4 0-0.1-0.1-0.2-0.1-0.3l0.5-0.7L25.8 13.1z"/><circle cx="15.1" cy="8.8" r="2.6"/><polygon points="13 23.2 12.8 23.2 11.8 23.5 11.8 24.4 12.6 24.4 13.6 24.3 13.7 24.4 14.8 24.4 14.8 23.4 14.8 23.2 14.8 22 13 22 "/><polygon points="17.3 23.2 17.3 22 15.4 22 15.4 23.2 15.4 23.4 15.4 24.4 16.6 24.4 16.6 24.3 17.6 24.4 18.5 24.4 18.5 23.5 17.4 23.2 "/><polygon points="26.4 7.1 21.6 9.8 21.5 9.6 17.5 11.7 16 11.7 15.1 12.8 14.1 11.7 12 12.1 11.9 16.7 12.8 16.7 12.8 17.7 13 17.7 13 18.3 13 18.7 13 19.8 14.8 19.8 14.8 18.7 15.4 18.7 15.4 19.8 17.3 19.8 17.3 18.7 17.3 18.3 17.3 17.7 17.4 17.7 17.7 13 22.1 10.7 21.7 10 21.8 10.2 26.6 7.5 "/><path d="M6.7 4.6l0 0V3.7h22.1v11.1h-2.1c0 0 0 0.1 0 0.1 0 0.3-0.1 0.5-0.1 0.8h3.3V2.8H5.6v0.9 1.1 6.8l1.1 0.4L6.7 4.6zM10.2 15.7h0.9 0.3l0.1-0.9h-1.1C10.5 15.1 10.4 15.4 10.2 15.7zM18.1 14.8l0 0.9 3.5 0c-0.1-0.2-0.1-0.5-0.1-0.8 0 0 0-0.1 0-0.1L18.1 14.8z"/></svg>