<svg xmlns="http://www.w3.org/2000/svg" version="1.1" x="0" y="0" width="30.7" height="30.7" viewBox="0 0 30.7 30.7" xml:space="preserve"><polygon points="24.6 2.3 28.5 6.4 27.2 7.6 25.3 5.7 24.6 6.5 26.5 8.4 25.6 9.2 24.4 8 23.6 8.8 24.8 10 23.7 11.1 21.8 9.2 21 10 22.9 11.9 22.1 12.7 20.8 11.5 20 12.2 22.4 14.5 30.7 6.4 24.6 0.2 16.2 8.4 17.2 9.5 "/><polygon points="12.8 19 14.2 20.5 13.1 21.5 11 19.4 10.2 20.1 12.3 22.3 11.5 23.1 10.1 21.6 9.3 22.4 10.7 23.9 9.6 25 7.5 22.9 6.7 23.6 8.8 25.8 7.9 26.6 6.5 25.1 5.7 25.9 7.2 27.3 6.1 28.4 2.1 24.3 11 15.6 9.9 14.5 0 24.3 6.1 30.5 16 20.8 13.5 18.2 "/><path d="M12.4 6.1l0 0L8.3 2 3.5 6.8l4.1 4.1 0 0 12.7 12.7 7.8 3.4 -2.9-8.1L12.4 6.1zM6.8 8.3L5.3 6.8l3-3L9.8 5.3 6.8 8.3zM25 24.9l-4.4-1.9 -0.6-0.6 2.6 0.2 -0.4-1.8 1.9 0.3 0-2.4 0.4 0.4 1.7 4.6L25 24.9z"/></svg>