<svg xmlns="http://www.w3.org/2000/svg" version="1.1" x="0" y="0" width="30.5" height="30.5" viewBox="0 0 30.5 30.5" xml:space="preserve"><path d="M18.5 22.7c-0.8-0.5-7.8-5.3-9.7-8.6l-0.1-0.2 -0.2 0c-1.6-0.1-2.9 0.9-3.4 1.4 -0.2-0.2-0.4-0.5-0.7-0.7l-0.3-0.3 -0.3 0.3c-1.1 1.1-1.5 2.1-1.4 3 0.1 0.7 0.6 1.4 1.5 1.9 0.2 0.1 2 1.3 3.9 2.9 -0.3 0.3-1.6 1.1-2 1.5 -0.5 0.4-2.6 2.2-2.6 2.2l1.3 0.3 0.5 0.9c0 0 0.6-1.6 1.3-2.3s1.9-1.4 1.9-1.4 -0.7 0.9-1.1 1.9c-0.5 0.9-0.6 2.5-0.6 2.5l0.8-0.3 0.6 1.2c0 0 0.2-1.7 0.5-2.9 0.3-0.9 1-1.8 1.2-2.1 2.5 2.2 5.1 4.8 5.6 5.3 0.3 0.4 0.7 0.6 1.2 0.7 0.2 0 0.4 0.1 0.6 0.1 1.1 0 2.1-0.7 2.7-1.8 0.8-1.4 1-3.4-0.3-4.8C19.2 23 18.8 22.8 18.5 22.7zM8 21.5c-1.8-1.4-3.4-2.5-3.7-2.7 -0.7-0.4-1-0.8-1.1-1.3 -0.1-0.6 0.2-1.3 0.9-2.1 1.8 1.8 3.2 3.2 4.5 4.3C8.1 20.6 8 21.1 8 21.5zM9.1 19c-1-0.9-2.2-2-3.5-3.3 0.4-0.4 1.4-1.1 2.6-1.1 0.6 1 1.7 2.2 2.9 3.3C10.6 18 9.8 18.2 9.1 19zM9.9 23c0.1-0.5 0.2-1.2 0.6-1.8 2.2 1.8 3.5 2.5 4 2.7 -0.1 0.6-0.2 2.1 0 3.5C13.3 26.1 11.6 24.4 9.9 23zM19.2 27.8c-0.5 0.8-1.4 1.7-2.5 1.4 -1.9-0.4-1.7-4.1-1.4-5.5l0.1-0.4 -0.4-0.1c0 0-1.2-0.3-4.1-2.7 0.6-0.6 1.4-0.9 2.1-1.1 1.7 1.4 3.3 2.6 4.3 3.3 0 0-0.1 0-0.1 0 -1.1 0.6-1.6 2.5-1.4 3.4 0.3 1.1 1 1.7 1.7 1.7 0.3 0 1.1-0.2 1.4-1.6l0-0.2 -0.2-0.1c-1.1-0.9-1.6-1.4-1.9-1.7 0.2-0.3 0.4-0.6 0.7-0.8 0.4-0.2 0.9-0.1 1.4 0.5C20 25 19.8 26.7 19.2 27.8zM18.1 26.4c-0.1 0.5-0.4 0.8-0.6 0.8 0 0 0 0 0 0 -0.3 0-0.8-0.4-1-1.2 -0.1-0.2 0-0.6 0-1C16.9 25.3 17.4 25.7 18.1 26.4zM6 8.6l-1.2 3.8c0 0 4.9 0.5 9 1.7 4.1 1.3 8.4 3.7 8.4 3.7l1.2-3.9c0 0-3.7-3.7-8-5C10.9 7.6 6 8.6 6 8.6zM30.5 14l-1.4-1.5 0.1-0.5c0 0 1.3-2.3-1.9-1.9 -0.2 0-0.3 0.1-0.3 0.2l-9.4-9.9L0 4.4l4.8 4.3 0.3-0.8c0 0 5.6-1.2 10.4 0.3 4.9 1.5 8.9 5.6 8.9 5.6l-0.5 1.5 3.6-0.7c-0.6 1.9-1.3 4.2-1.5 4.9l-1-0.3 -0.8 2.4 1.7-0.5 1.2 1.4 0.8-2.4 -1.1-0.4 1.6-5.3L30.5 14zM28.4 13.5c-0.1 0.4-0.6 0.6-1 0.5 -0.4-0.1-0.6-0.6-0.5-1 0.1-0.4 0.6-0.6 1-0.5S28.5 13.1 28.4 13.5zM27.7 11.1c0.4-0.1 1.1-0.2 0.9 0.3 0 0.1-0.1 0.2-0.1 0.5L27.7 11.1z"/></svg>