<?xml version="1.0" encoding="iso-8859-1"?>
<?xml-stylesheet type="text/css" href="require('portal.css')"?>
<svg version="1.1" id="Capa_11" xmlns="http://www.w3.org/2000/svg" xmlns:xlink="http://www.w3.org/1999/xlink" x="0px" y="0px"
	 viewBox="0 0 62.436 62.436" xml:space="preserve">
<g>
	<path  d="M50.83,58.996H33.412c-1.108,0-2.007-0.898-2.007-2.007v-4.461c0-1.865,1.117-3.55,2.836-4.275
		c0.615-0.261,0.914-0.978,0.672-1.599l-1.687-4.306c-0.171-0.436,0.043-0.926,0.478-1.099l13.271-5.256
		c0.421-0.161,0.761-0.483,0.942-0.896c0.183-0.413,0.193-0.88,0.03-1.301c-0.339-0.873-1.319-1.308-2.193-0.97l-20.63,7.975
		c-0.623,0.24-0.988,0.959-0.813,1.604l0.243,0.756c0.089,0.279,0.028,0.584-0.161,0.808s-0.48,0.333-0.77,0.291
		c-1.96-0.287-5.383-1.673-6.554-7.543c-1.669-8.368,5.965-12.411,9.769-13.881c0.455-0.176,0.961-0.164,1.407,0.035
		c0.446,0.198,0.795,0.565,0.97,1.021l-0.662,0.348c-0.249,0.13-0.345,0.438-0.214,0.687c0.091,0.173,0.268,0.272,0.451,0.272
		c0.079,0,0.16-0.019,0.236-0.058l0.647-0.339c0.528,0.812,1.288,1.458,2.192,1.835l-0.111,0.804
		c-0.039,0.278,0.155,0.535,0.435,0.573c0.022,0.003,0.047,0.005,0.069,0.005c0.249,0,0.469-0.184,0.504-0.439l0.09-0.657
		c0.288,0.053,0.582,0.089,0.885,0.089c0.641,0,1.25-0.131,1.811-0.356l0.436,0.828c0.091,0.173,0.268,0.272,0.45,0.272
		c0.08,0,0.16-0.019,0.235-0.059c0.248-0.131,0.346-0.438,0.214-0.686l-0.435-0.826c0.736-0.497,1.319-1.196,1.692-2.011
		l0.615,0.324c0.076,0.04,0.156,0.059,0.236,0.059c0.183,0,0.359-0.099,0.45-0.272c0.131-0.248,0.035-0.556-0.214-0.686
		l-0.757-0.398c0.072-0.336,0.116-0.683,0.116-1.041c0-0.654-0.133-1.276-0.366-1.846l0.504-0.318
		c0.248-0.131,0.345-0.438,0.213-0.687c-0.13-0.25-0.439-0.342-0.687-0.214l-0.516,0.325c-0.325-0.475-0.737-0.879-1.209-1.208
		c-0.222-0.154-0.395-0.362-0.506-0.607L30.163,4.707c-0.483-1.064-1.731-1.545-2.804-1.08c-0.322,0.139-0.696-0.002-0.845-0.319
		L25.37,0.877c-0.359-0.763-1.267-1.09-2.03-0.731c-0.762,0.359-1.089,1.268-0.731,2.03l1.079,2.291
		c0.077,0.164,0.084,0.353,0.021,0.522c-0.064,0.17-0.194,0.306-0.36,0.378c-0.521,0.227-0.932,0.651-1.141,1.18
		c-0.209,0.529-0.199,1.12,0.029,1.641l1.738,3.992c0.263,0.614-0.025,1.309-0.634,1.581c-4.891,2.2-15.104,8.597-12.542,22.958
		c1.264,7.085,5.128,10.372,8.291,11.894c1.606,0.773,2.631,2.402,2.631,4.185v4.082c0,1.108-0.898,2.007-2.007,2.007h-4.556
		c-0.667,0-1.204,0.54-1.195,1.212l0.008,2.337h38.072v-2.228C52.041,59.537,51.499,58.996,50.83,58.996z M25.429,16.498
		c0.46,0,0.831,0.373,0.831,0.833c-0.001,0.459-0.373,0.833-0.832,0.833c-0.46,0-0.831-0.374-0.831-0.833
		C24.597,16.87,24.97,16.498,25.429,16.498z M26.557,47.539c0.461,0,0.833,0.375,0.833,0.834c0,0.457-0.373,0.833-0.833,0.833
		s-0.833-0.376-0.833-0.833C25.724,47.914,26.097,47.539,26.557,47.539z"/>
</g>
<g>
</g>
<g>
</g>
<g>
</g>
<g>
</g>
<g>
</g>
<g>
</g>
<g>
</g>
<g>
</g>
<g>
</g>
<g>
</g>
<g>
</g>
<g>
</g>
<g>
</g>
<g>
</g>
<g>
</g>
</svg>
