<?xml version="1.0" encoding="iso-8859-1"?><?xml-stylesheet type="text/css" href="require('portal.css')"?><svg version="1.1" xmlns="http://www.w3.org/2000/svg" x="0" y="0" viewBox="0 0 422.1 422.1" xml:space="preserve"><path d="M229 392.7H44.5V27.3h198.9V82.7c0 5.6 4.5 10.1 10.1 10.1h53.8l0 181.6c9.4 0.2 18.6 2 27.3 5.2V77.7c0-2.2-0.9-4.2-2.4-5.8L262.7 2.4C261.1 0.9 259.1 0 256.9 0H41.8C28.3 0 17.3 11 17.3 24.5v370.9c0 13.5 11 24.5 24.5 24.5h207C240.5 412.4 233.7 403.1 229 392.7zM404.8 311.6c0-4.6-1.8-8.9-5-12.1l-12.8-12.8c-3.2-3.2-7.6-5-12.1-5 -4.6 0-8.9 1.8-12.1 5l-19.6 19.6c-10.5-7.5-23.3-11.9-37.2-11.9 -35.3 0-63.9 28.6-63.9 63.9 0 35.3 28.6 63.9 63.9 63.9 35.3 0 63.9-28.6 63.9-63.9 0-1.4-0.1-2.8-0.1-4.3l30.2-30.2C403 320.5 404.8 316.2 404.8 311.6zM385.9 315.5l-61.4 61.4c-1.3 1.3-3.1 2-4.9 2h0c-1.8 0-3.6-0.7-4.9-2l-28.5-28.5c-2.7-2.7-2.7-7.1 0-9.8l5.5-5.5c2.7-2.7 7.1-2.7 9.8 0l18.1 18.1 51-51c1.3-1.3 3.1-2 4.9-2s3.6 0.7 4.9 2l5.5 5.5C388.6 308.4 388.6 312.8 385.9 315.5zM188.1 109l-57.4 13.1 13.1-57.4c-20.1-5-42.3 0.3-58.1 16 -23.8 23.8-23.8 62.5 0 86.3 23.8 23.8 62.5 23.8 86.3 0C187.8 151.3 193.2 129.1 188.1 109zM188.7 64.1c-8.1-8.1-17.9-13.4-28.3-16l-13.1 57.4 57.4-13.1C202.1 82 196.8 72.2 188.7 64.1z"></path><path d="M89.2 249.9h21c5.8 0 10.5-4.7 10.5-10.5 0-5.8-4.7-10.5-10.5-10.5H89.2c-5.8 0-10.5 4.7-10.5 10.5C78.6 245.2 83.3 249.9 89.2 249.9zM170.2 267.9H89.2c-5.8 0-10.5 4.7-10.5 10.5 0 5.8 4.7 10.5 10.5 10.5h81c5.8 0 10.5-4.7 10.5-10.5C180.7 272.6 176 267.9 170.2 267.9zM158.2 306.9H89.2c-5.8 0-10.5 4.7-10.5 10.5 0 5.8 4.7 10.5 10.5 10.5h69c5.8 0 10.5-4.7 10.5-10.5C168.7 311.6 164 306.9 158.2 306.9z"></path></svg>
