<?xml version="1.0" encoding="iso-8859-1"?><?xml-stylesheet type="text/css" href="require('portal.css')"?><svg version="1.1" xmlns="http://www.w3.org/2000/svg" x="0" y="0" viewBox="0 0 100 100" xml:space="preserve"><path d="M100 94c0 0-0.2-18.9-1.4-20.9 -1.7-2.9-5.7-4.9-13.2-8 -7.4-3.1-9.8-5.7-9.8-11.3 0-3.4 2.3-2.3 3.3-8.4 0.4-2.6 2.4 0 2.8-5.9 0-2.3-1.1-2.9-1.1-2.9s0.6-3.4 0.8-6.1c0.3-3.3-1.7-11.8-12-11.8 -10.3 0-12.2 8.5-12 11.8 0.2 2.6 0.8 6.1 0.8 6.1s-1.1 0.6-1.1 2.9c0.4 5.8 2.4 3.3 2.8 5.9 1 6.2 3.3 5.1 3.3 8.4 0 3.8-1.1 6.2-4.1 8.4 16.2 8.1 18.4 9.8 18.4 17V94H100zM51.1 67.9c-9.9-4.1-13.1-7.6-13.1-15.1 0-4.5 3-3 4.3-11.2 0.5-3.4 3.2-0.1 3.7-7.8 0-3.1-1.5-3.9-1.5-3.9s0.7-4.6 1-8.1C46.1 17.4 43.5 6 29.8 6c-13.7 0-16.3 11.4-15.9 15.8 0.3 3.5 1 8.1 1 8.1s-1.5 0.8-1.5 3.9c0.5 7.8 3.2 4.4 3.7 7.8 1.3 8.2 4.3 6.7 4.3 11.2 0 7.5-3.2 11-13.1 15.1C5.4 69.1 0 71.1 0 75.8V94h69.5c0 0 0-10.8 0-13.7C69.5 76.1 61 72 51.1 67.9z"></path></svg>
